<svg width="1705" height="291" viewBox="0 0 1705 291" fill="none" xmlns="http://www.w3.org/2000/svg">
<g clip-path="url(#clip0_1031_1503)">
<path d="M1034.01 30.0999C1053.37 30.0999 1070.08 33.7836 1084.13 41.151C1098.35 48.5183 1109.31 59.0553 1117.02 72.7619C1124.9 86.2973 1128.84 102.317 1128.84 120.821C1128.84 139.154 1124.9 155.002 1117.02 168.366C1109.31 181.73 1098.35 192.01 1084.13 199.206C1070.08 206.402 1053.37 210 1034.01 210H969.761V30.0999H1034.01ZM1034.01 184.557C1054.57 184.557 1070.33 178.989 1081.3 167.852C1092.44 156.544 1098 140.867 1098 120.821C1098 100.604 1092.44 84.6696 1081.3 73.0189C1070.33 61.3683 1054.57 55.543 1034.01 55.543H1000.34V184.557H1034.01Z" fill="#202020"/>
<path d="M1208.79 211.799C1195.94 211.799 1184.63 208.972 1174.86 203.318C1165.27 197.664 1157.73 189.783 1152.25 179.674C1146.94 169.565 1144.28 157.915 1144.28 144.722C1144.28 132.215 1146.94 121.078 1152.25 111.312C1157.56 101.546 1164.93 93.836 1174.35 88.182C1183.77 82.528 1194.48 79.701 1206.47 79.701C1218.64 79.701 1229.35 82.3566 1238.6 87.668C1247.85 92.9793 1255.05 100.432 1260.19 110.027C1265.5 119.45 1268.15 130.416 1268.15 142.923C1268.15 144.979 1268.07 147.206 1267.9 149.605C1267.73 151.832 1267.47 154.231 1267.13 156.801H1175.63C1176.49 162.798 1178.38 168.023 1181.29 172.478C1184.37 176.761 1188.23 180.102 1192.85 182.501C1197.48 184.9 1202.79 186.099 1208.79 186.099C1215.98 186.099 1222.41 184.643 1228.06 181.73C1233.89 178.817 1237.91 174.962 1240.14 170.165L1265.58 178.646C1260.44 188.926 1252.82 197.064 1242.71 203.061C1232.6 208.886 1221.29 211.799 1208.79 211.799ZM1236.54 133.157C1236.37 127.846 1234.92 123.048 1232.17 118.765C1229.43 114.482 1225.83 111.141 1221.38 108.742C1216.93 106.172 1211.96 104.887 1206.47 104.887C1201.68 104.887 1197.14 106.086 1192.85 108.485C1188.57 110.884 1184.89 114.225 1181.8 118.508C1178.89 122.62 1177 127.503 1176.15 133.157H1236.54Z" fill="#202020"/>
<path d="M1306.72 168.623C1307.92 173.42 1309.98 177.104 1312.89 179.674C1315.97 182.244 1319.32 184.043 1322.91 185.071C1326.51 185.928 1329.94 186.356 1333.19 186.356C1339.88 186.356 1345.1 185.071 1348.87 182.501C1352.81 179.76 1354.78 176.333 1354.78 172.221C1354.78 168.794 1353.5 166.139 1350.93 164.254C1348.36 162.369 1345.02 160.913 1340.9 159.885C1336.96 158.686 1332.85 157.486 1328.57 156.287C1323.94 155.088 1318.97 153.717 1313.66 152.175C1308.52 150.633 1303.64 148.491 1299.01 145.75C1294.39 143.009 1290.62 139.496 1287.7 135.213C1284.79 130.93 1283.34 125.618 1283.34 119.279C1283.34 111.226 1285.56 104.287 1290.02 98.462C1294.47 92.4653 1300.55 87.8393 1308.26 84.584C1315.97 81.3286 1324.63 79.701 1334.22 79.701C1345.7 79.701 1355.64 82.0996 1364.03 86.897C1372.43 91.6943 1378.51 98.719 1382.28 107.971L1356.84 116.195C1355.64 113.796 1353.84 111.74 1351.44 110.027C1349.21 108.314 1346.47 107.114 1343.22 106.429C1340.13 105.572 1336.96 105.144 1333.71 105.144C1328.23 105.144 1323.6 106.258 1319.83 108.485C1316.06 110.712 1314.18 113.882 1314.18 117.994C1314.18 120.05 1314.78 121.849 1315.97 123.391C1317.35 124.933 1319.14 126.218 1321.37 127.246C1323.6 128.103 1326.25 128.959 1329.34 129.816C1332.42 130.501 1335.68 131.358 1339.1 132.386C1344.59 133.928 1349.98 135.641 1355.3 137.526C1360.78 139.239 1365.75 141.467 1370.2 144.208C1374.83 146.949 1378.43 150.547 1381 155.002C1383.74 159.457 1385.28 165.111 1385.62 171.964C1385.62 179.331 1383.48 186.099 1379.2 192.267C1374.91 198.264 1368.75 203.061 1360.69 206.659C1352.81 210.086 1343.39 211.799 1332.42 211.799C1319.74 211.799 1308.86 209.058 1299.78 203.575C1290.7 198.092 1284.54 189.269 1281.28 177.104L1306.72 168.623Z" fill="#202020"/>
<path d="M1553.28 81.5H1579.49V190.725C1579.49 205.288 1575.9 217.796 1568.7 228.247C1561.5 238.87 1551.14 247.008 1537.6 252.662C1524.07 258.487 1507.79 261.4 1488.77 261.4L1484.4 236.471C1505.99 235.957 1522.36 231.845 1533.49 224.135C1544.8 216.425 1550.45 205.374 1550.45 190.982V190.725H1553.79C1549.85 196.55 1544.11 201.519 1536.58 205.631C1529.21 209.743 1520.38 211.799 1510.1 211.799C1498.8 211.799 1488.77 209.058 1480.04 203.575C1471.3 198.092 1464.44 190.382 1459.48 180.445C1454.68 170.508 1452.28 158.943 1452.28 145.75C1452.28 132.557 1454.68 120.992 1459.48 111.055C1464.44 101.118 1471.3 93.4076 1480.04 87.925C1488.77 82.4423 1498.8 79.701 1510.1 79.701C1516.44 79.701 1522.18 80.5576 1527.32 82.271C1532.64 83.813 1537.26 85.9546 1541.2 88.696C1545.31 91.266 1548.65 94.1786 1551.22 97.434L1553.28 81.5ZM1483.38 145.75C1483.38 157.572 1486.46 167.167 1492.63 174.534C1498.8 181.901 1507.02 185.585 1517.3 185.585C1523.3 185.585 1528.78 184.043 1533.75 180.959C1538.72 177.704 1542.74 173.078 1545.83 167.081C1548.91 161.084 1550.45 153.974 1550.45 145.75C1550.45 137.183 1548.91 129.987 1545.83 124.162C1542.74 118.165 1538.63 113.625 1533.49 110.541C1528.52 107.457 1523.13 105.915 1517.3 105.915C1507.02 105.915 1498.8 109.599 1492.63 116.966C1486.46 124.162 1483.38 133.757 1483.38 145.75Z" fill="#202020"/>
<path d="M1404.33 81.5H1433.37V210H1404.33V81.5ZM1418.98 61.968C1413.67 61.968 1409.21 60.169 1405.62 56.571C1402.02 52.973 1400.22 48.6896 1400.22 43.721C1400.22 38.4096 1402.02 33.955 1405.62 30.357C1409.21 26.759 1413.67 24.96 1418.98 24.96C1424.12 24.96 1428.49 26.759 1432.09 30.357C1435.68 33.955 1437.48 38.4096 1437.48 43.721C1437.48 48.6896 1435.68 52.973 1432.09 56.571C1428.49 60.169 1424.12 61.968 1418.98 61.968Z" fill="#202020"/>
<path d="M1593.22 81.5H1619.43L1621.49 94.093C1625.77 89.6383 1630.83 86.126 1636.65 83.556C1642.65 80.986 1649.07 79.701 1655.93 79.701C1666.04 79.701 1674.69 81.8426 1681.88 86.126C1689.25 90.238 1694.91 96.406 1698.85 104.63C1702.79 112.683 1704.76 122.791 1704.76 134.956V210H1675.72V138.811C1675.72 128.017 1673.49 119.879 1669.03 114.396C1664.75 108.913 1658.24 106.172 1649.5 106.172C1640.59 106.172 1633.82 108.999 1629.2 114.653C1624.57 120.136 1622.26 128.274 1622.26 139.068V210H1593.22V81.5Z" fill="#202020"/>
<path d="M441.001 211.799C428.322 211.799 416.414 209.571 405.278 205.117C394.141 200.662 384.375 194.408 375.98 186.356C367.756 178.132 361.245 168.451 356.448 157.315C351.822 146.007 349.509 133.585 349.509 120.05C349.509 106.686 351.822 94.4354 356.448 83.2988C361.245 71.9908 367.756 62.2248 375.98 54.0008C384.375 45.7768 394.141 39.4374 405.278 34.9828C416.414 30.5281 428.322 28.3008 441.001 28.3008C453.679 28.3008 465.501 30.5281 476.467 34.9828C487.603 39.4374 497.284 45.7768 505.508 54.0008C513.903 62.2248 520.414 71.9908 525.04 83.2988C529.837 94.4354 532.236 106.686 532.236 120.05C532.236 133.585 529.837 146.007 525.04 157.315C520.414 168.451 513.903 178.132 505.508 186.356C497.284 194.408 487.603 200.662 476.467 205.117C465.501 209.571 453.679 211.799 441.001 211.799ZM441.001 185.842C452.651 185.842 463.017 183.186 472.098 177.875C481.178 172.392 488.289 164.768 493.429 155.002C498.569 145.064 501.139 133.414 501.139 120.05C501.139 106.514 498.569 94.8638 493.429 85.0978C488.289 75.3318 481.178 67.7931 472.098 62.4818C463.017 56.9991 452.651 54.2578 441.001 54.2578C429.35 54.2578 418.984 56.9991 409.904 62.4818C400.823 67.7931 393.627 75.3318 388.316 85.0978C383.176 94.8638 380.606 106.514 380.606 120.05C380.606 133.414 383.176 145.064 388.316 155.002C393.627 164.768 400.823 172.392 409.904 177.875C418.984 183.186 429.35 185.842 441.001 185.842Z" fill="#202020"/>
<path d="M754.787 211.799C741.937 211.799 730.629 208.972 720.863 203.318C711.268 197.664 703.729 189.782 698.247 179.674C692.935 169.565 690.28 157.914 690.28 144.722C690.28 132.214 692.935 121.078 698.247 111.312C703.558 101.546 710.925 93.8358 720.349 88.1818C729.772 82.5278 740.48 79.7008 752.474 79.7008C764.638 79.7008 775.347 82.3564 784.599 87.6678C793.851 92.9791 801.047 100.432 806.187 110.027C811.498 119.45 814.154 130.415 814.154 142.923C814.154 144.979 814.068 147.206 813.897 149.605C813.725 151.832 813.469 154.231 813.126 156.801H721.634C722.49 162.797 724.375 168.023 727.288 172.478C730.372 176.761 734.227 180.102 738.853 182.501C743.479 184.899 748.79 186.099 754.787 186.099C761.983 186.099 768.408 184.642 774.062 181.73C779.887 178.817 783.913 174.962 786.141 170.165L811.584 178.646C806.444 188.926 798.819 197.064 788.711 203.061C778.602 208.886 767.294 211.799 754.787 211.799ZM782.543 133.157C782.371 127.845 780.915 123.048 778.174 118.765C775.432 114.481 771.835 111.14 767.38 108.742C762.925 106.172 757.956 104.887 752.474 104.887C747.676 104.887 743.136 106.086 738.853 108.485C734.569 110.883 730.886 114.224 727.802 118.508C724.889 122.62 723.004 127.503 722.148 133.157H782.543Z" fill="#202020"/>
<path d="M828.219 81.4998H854.433L856.489 94.0928C860.772 89.6381 865.826 86.1258 871.652 83.5558C877.648 80.9858 884.073 79.7008 890.927 79.7008C901.035 79.7008 909.688 81.8424 916.884 86.1258C924.251 90.2378 929.905 96.4058 933.846 104.63C937.786 112.682 939.757 122.791 939.757 134.956V210H910.716V138.811C910.716 128.017 908.488 119.878 904.034 114.396C899.75 108.913 893.24 106.172 884.502 106.172C875.592 106.172 868.825 108.999 864.199 114.653C859.573 120.135 857.26 128.274 857.26 139.068V210H828.219V81.4998Z" fill="#202020"/>
<path d="M573.919 190.982L577.26 190.211V261.4H548.219V81.4998H574.433L576.489 97.4338C580.772 92.4651 586.34 88.2674 593.194 84.8408C600.047 81.4141 608.357 79.7008 618.123 79.7008C629.259 79.7008 639.111 82.4421 647.678 87.9248C656.416 93.4074 663.183 101.117 667.981 111.055C672.949 120.821 675.434 132.386 675.434 145.75C675.434 158.942 672.949 170.507 667.981 180.445C663.183 190.382 656.501 198.092 647.935 203.575C639.368 209.057 629.431 211.799 618.123 211.799C607.843 211.799 598.933 209.828 591.395 205.888C583.856 201.776 578.031 196.807 573.919 190.982ZM644.337 145.75C644.337 133.928 641.167 124.333 634.828 116.966C628.66 109.598 620.693 105.915 610.927 105.915C604.759 105.915 599.105 107.457 593.965 110.541C588.996 113.625 584.97 118.079 581.886 123.905C578.802 129.73 577.26 137.012 577.26 145.75C577.26 154.316 578.802 161.598 581.886 167.595C584.97 173.42 588.996 177.875 593.965 180.959C599.105 184.043 604.759 185.585 610.927 185.585C620.693 185.585 628.66 181.901 634.828 174.534C641.167 167.166 644.337 157.572 644.337 145.75Z" fill="#202020"/>
<path fill-rule="evenodd" clip-rule="evenodd" d="M145.5 0C225.857 0 291 65.1426 291 145.5C291 225.857 225.857 291 145.5 291H19.3581C8.64385 291 0.000681982 282.358 0.000616442 271.644C0.000417939 239.193 1.50624e-09 174.523 0 145.5C0 65.1426 65.1426 5.2069e-06 145.5 0ZM145.501 29.1004C81.2147 29.1004 29.1004 81.2147 29.1004 145.501C29.1005 209.786 81.2147 261.9 145.501 261.9C209.786 261.9 261.9 209.786 261.9 145.501C261.9 81.2147 209.786 29.1004 145.501 29.1004Z" fill="#202020"/>
<path d="M137.934 215.04L94.3119 100.247C92.9002 96.5317 96.5286 92.8895 100.219 94.3172L215.067 138.749C219.793 140.578 218.491 147.633 213.427 147.633H146.769V213.4C146.769 218.499 139.744 219.804 137.934 215.04Z" fill="#202020"/>
</g>
<defs>
<clipPath id="clip0_1031_1503">
<rect width="1705" height="291" fill="white"/>
</clipPath>
</defs>
</svg>
