<svg width="81" height="31" viewBox="0 0 81 31" fill="none" xmlns="http://www.w3.org/2000/svg">
<g clip-path="url(#clip0_1053_6254)">
<path d="M46.872 6.10498H46.84L44.813 6.10798L44.815 7.99398H40.914C40.7498 7.99268 40.5914 8.05455 40.4715 8.16678C40.3516 8.27902 40.2795 8.43304 40.27 8.59698L40.269 8.62898V10.637H44.817V14.24L44.81 15.703L44.807 15.866L44.803 16.025C44.795 16.292 44.783 16.628 44.764 16.878L44.753 17.027L44.723 17.373H39.993C39.8285 17.3714 39.6697 17.4333 39.5495 17.5458C39.4294 17.6583 39.3573 17.8127 39.348 17.977V20.016H44.56C43.602 22.691 41.811 24.441 39.347 25.406L39.992 27.579C40.055 27.789 40.364 27.849 40.512 27.789C42.281 27.091 45.402 25.33 46.986 21.134C48.388 25.124 51.636 26.984 53.111 27.645L53.235 27.7C53.726 27.913 53.935 27.7 54.014 27.436L54.621 25.406C53.624 25.011 50.671 23.734 49.418 20.016H54.005C54.1651 20.0112 54.3175 19.9467 54.4323 19.8351C54.5471 19.7234 54.6158 19.5728 54.625 19.413V17.373H53.345V8.62998C53.3436 8.46569 53.2791 8.30824 53.1648 8.19021C53.0505 8.07219 52.8952 8.00265 52.731 7.99598L52.699 7.99498H47.487L47.485 6.72698V6.70498C47.476 6.55234 47.4125 6.40801 47.3061 6.29825C47.1996 6.18849 47.0573 6.12062 46.905 6.10698L46.872 6.10498ZM37.368 6.10498H35.34V27.122C35.34 27.462 35.611 27.74 35.952 27.756L35.984 27.757L38.012 27.745V14.987H39.621C39.7811 14.9822 39.9335 14.9177 40.0483 14.8061C40.1631 14.6944 40.2318 14.5438 40.241 14.384V12.344H38.011V6.71598C38.0037 6.55622 37.9368 6.40501 37.8235 6.29211C37.7102 6.17921 37.5588 6.11281 37.399 6.10598H37.367L37.368 6.10498ZM76.291 6.35698C75.936 6.86398 75.251 7.43998 74.243 7.45198H58.643V9.45998C58.643 9.78898 58.897 10.06 59.223 10.091L59.256 10.094H67.499V13.557H60.037C59.8726 13.5557 59.7141 13.6177 59.5942 13.7301C59.4743 13.8426 59.4023 13.9969 59.393 14.161V14.193L59.392 16.2H67.499V19.35H57.719C57.5546 19.3484 57.396 19.4102 57.2759 19.5224C57.1558 19.6347 57.0835 19.7889 57.074 19.953V21.992H67.499V24.337L67.497 24.38L67.495 24.402L67.491 24.438C67.463 24.6205 67.3724 24.7877 67.2346 24.9106C67.0968 25.0336 66.9206 25.1048 66.736 25.112L66.699 25.113H63.1L63.683 27.27C63.7175 27.3972 63.7892 27.5112 63.889 27.5973C63.9888 27.6834 64.1121 27.7376 64.243 27.753L64.276 27.755H66.785L66.84 27.753L66.899 27.75C68.713 27.648 70.141 26.176 70.171 24.38V21.992H79.605C79.7651 21.9872 79.9175 21.9227 80.0323 21.8111C80.1471 21.6994 80.2158 21.5488 80.225 21.389V19.349H70.171V16.2H77.203C77.3631 16.1952 77.5155 16.1307 77.6303 16.0191C77.7451 15.9074 77.8138 15.7568 77.823 15.597L77.824 15.566V13.558H70.17V10.095C71.055 10.1 72.393 10.099 74.184 10.091C77.102 10.103 78.595 7.98898 78.992 7.01498L77.062 6.18998C76.695 6.03298 76.425 6.16598 76.291 6.35698ZM33.574 8.97998H31.546V16.183L31.544 16.413L31.542 16.558C31.499 18.1005 31.2429 19.6296 30.781 21.102C30.7356 21.2507 30.7465 21.411 30.8119 21.5521C30.8772 21.6933 30.9922 21.8054 31.135 21.867L31.166 21.879L33.136 22.537C33.814 20.662 34.177 18.694 34.216 16.547L34.217 16.373L34.218 16.203L34.22 15.495L34.218 15.494V9.58398C34.2091 9.43113 34.1457 9.28654 34.0393 9.17645C33.9328 9.06636 33.7905 8.99808 33.638 8.98398L33.606 8.98098L33.574 8.97998ZM47.49 10.636H50.672V17.373H47.408L47.437 16.971C47.462 16.588 47.477 16.111 47.483 15.692L47.484 15.512L47.486 15.065L47.49 10.636Z" fill="#303030"/>
<path fill-rule="evenodd" clip-rule="evenodd" d="M21.02 16.34C23.923 16.34 26.275 18.68 26.275 21.565V25.715C26.275 28.6 23.923 30.939 21.02 30.939H13.292C12.187 30.9408 11.1095 30.5941 10.2127 29.9484C9.316 29.3026 8.64565 28.3906 8.297 27.342L3.693 29.636C3.08886 29.9379 2.38983 29.9885 1.74851 29.7767C1.1072 29.565 0.575682 29.1082 0.27 28.506C0.0924092 28.1536 -6.7146e-05 27.7646 3.65791e-08 27.37V19.928C3.65791e-08 18.528 1.142 17.393 2.55 17.393C2.95 17.393 3.345 17.486 3.702 17.666L8.286 19.973C8.62907 18.916 9.29847 17.995 10.198 17.3424C11.0975 16.6897 12.1807 16.3392 13.292 16.341L21.02 16.34ZM20.987 19.03H13.37C12.6825 19.0278 12.0217 19.2958 11.53 19.7764C11.0384 20.257 10.7554 20.9116 10.742 21.599V25.637C10.744 26.3243 11.016 26.9832 11.4994 27.4718C11.9828 27.9604 12.6388 28.2395 13.326 28.249H20.943C21.6302 28.251 22.2906 27.9829 22.782 27.5025C23.2734 27.0222 23.5564 26.368 23.57 25.681V21.642C23.568 20.9549 23.2961 20.296 22.8129 19.8075C22.3298 19.3189 21.6741 19.0397 20.987 19.03ZM3.4 20.65C3.21834 20.6497 3.0438 20.7206 2.91385 20.8476C2.78391 20.9745 2.70893 21.1474 2.705 21.329V26.007C2.70596 26.1245 2.73661 26.2398 2.7941 26.3423C2.85159 26.4448 2.93406 26.5311 3.03385 26.5932C3.13363 26.6552 3.24748 26.691 3.36482 26.6973C3.48216 26.7036 3.59918 26.6801 3.705 26.629L3.716 26.623L8.037 24.432V22.882L3.712 20.724C3.61514 20.6755 3.50833 20.6501 3.4 20.65ZM9.815 0.974984C11.077 0.973039 12.3167 1.30682 13.4071 1.94208C14.4975 2.57734 15.3993 3.49122 16.02 4.58998C17.1498 3.54645 18.632 2.96819 20.17 2.97098C23.542 2.97098 26.275 5.68898 26.275 9.04098C26.275 12.393 23.542 15.111 20.17 15.111C19.2093 15.1124 18.2618 14.8872 17.4045 14.4537C16.5472 14.0202 15.8043 13.3906 15.236 12.616C14.5671 13.3997 13.7359 14.0288 12.7998 14.4596C11.8638 14.8904 10.8454 15.1126 9.815 15.111C5.888 15.111 2.705 11.946 2.705 8.04198C2.705 4.13798 5.888 0.974984 9.815 0.974984ZM9.815 3.81698C7.467 3.81698 5.565 5.70898 5.565 8.04298C5.565 10.377 7.467 12.269 9.815 12.269C12.162 12.269 14.065 10.377 14.065 8.04298C14.065 5.70898 12.162 3.81698 9.815 3.81698ZM20.17 5.81498C19.745 5.8138 19.324 5.89633 18.931 6.05786C18.5379 6.21939 18.1805 6.45676 17.8792 6.75642C17.5778 7.05607 17.3385 7.41215 17.1748 7.8043C17.0111 8.19646 16.9262 8.61703 16.925 9.04198C16.9262 9.46694 17.0111 9.88751 17.1748 10.2797C17.3385 10.6718 17.5778 11.0279 17.8792 11.3275C18.1805 11.6272 18.5379 11.8646 18.931 12.0261C19.324 12.1876 19.745 12.2702 20.17 12.269C20.595 12.2703 21.0162 12.1879 21.4094 12.0264C21.8025 11.8649 22.1601 11.6276 22.4615 11.3279C22.7629 11.0282 23.0024 10.6721 23.1661 10.2799C23.3299 9.88767 23.4148 9.46703 23.416 9.04198C23.4148 8.61694 23.3299 8.1963 23.1661 7.80407C23.0024 7.41185 22.7629 7.05573 22.4615 6.75606C22.1601 6.4564 21.8025 6.21905 21.4094 6.05757C21.0162 5.8961 20.595 5.81367 20.17 5.81498Z" fill="#303030"/>
</g>
<defs>
<clipPath id="clip0_1053_6254">
<rect width="81" height="31" fill="white"/>
</clipPath>
</defs>
</svg>
