<svg width="344" height="32" viewBox="0 0 344 32" fill="none" xmlns="http://www.w3.org/2000/svg">
<path d="M117.869 27.9896H119.988C120.269 27.9896 120.495 27.7632 120.495 27.4825V3.98962H118.376C118.095 3.98962 117.869 4.21604 117.869 4.4968V27.9896Z" fill="black"/>
<path d="M99.058 7.07344H109.849V10.8546H100.493C99.8414 10.8546 99.307 11.3889 99.307 12.041V19.8614H109.849V24.3036C109.849 24.7248 109.505 25.0689 109.084 25.0689H99.3568L99.9681 27.3693C100.018 27.5595 100.195 27.6953 100.394 27.6953H108.989C110.913 27.6953 112.48 26.1285 112.48 24.204V17.2304H101.938V13.481H111.973C112.253 13.481 112.48 13.2546 112.48 12.9738V4.44702H99.5697C99.2889 4.44702 99.0625 4.67344 99.0625 4.95419V7.07344H99.058Z" fill="black"/>
<path d="M50.5417 7.69385H42.8345V5.67423C42.8345 5.40706 43.0519 5.1897 43.3191 5.1897H51.0262V7.20932C51.0262 7.47649 50.8089 7.69385 50.5417 7.69385Z" fill="black"/>
<path d="M48.5945 6.6704L46.181 6.43945C45.8368 10.0802 44.3561 13.4764 41.9923 16.2206L42.504 18.1451C42.5991 18.5119 43.07 18.6342 43.3281 18.3579C46.3168 15.1474 48.1779 11.0674 48.5945 6.6704Z" fill="black"/>
<path d="M50.7093 13.3586H44.3742V15.8537H50.7093V13.3586Z" fill="black"/>
<path d="M46.4301 14.7352H44.1569V27.9941H46.4301V14.7352Z" fill="black"/>
<path d="M50.7093 14.7352H48.4361V26.3639H50.7093V14.7352Z" fill="black"/>
<path d="M49.8986 27.9941H44.1612V25.499H50.7137V27.1836C50.7091 27.6319 50.3469 27.9941 49.8986 27.9941Z" fill="black"/>
<path d="M68.1251 8.58594H51.9002V6.56632C51.9002 6.29915 52.1175 6.08179 52.3847 6.08179H68.6096V8.10141C68.6096 8.37311 68.3922 8.58594 68.1251 8.58594Z" fill="black"/>
<path d="M54.1689 3.98963L55.6179 7.81152L57.959 6.92398L56.9628 4.29756C56.8904 4.10737 56.7138 3.98511 56.51 3.98511H54.1689V3.98963Z" fill="black"/>
<path d="M63.5153 4.30206L62.519 6.92848L64.8602 7.81602L66.3092 3.99414H63.9681C63.7643 3.98961 63.5877 4.1164 63.5153 4.30206Z" fill="black"/>
<path d="M61.8037 25.4494H60.4045V27.6999H61.8037C63.7101 27.6999 65.5124 27.2471 67.1471 26.4728L66.8392 24.1633C65.3132 24.992 63.5969 25.4494 61.8037 25.4494Z" fill="black"/>
<path d="M57.2075 16.3293H51.9275V18.6342H57.2075V16.3293Z" fill="black"/>
<path d="M54.8075 8.30969C54.1056 10.8501 53.1185 13.4765 51.9275 15.8267V18.6342H53.1094C54.6807 15.8538 55.9849 12.7429 56.8951 9.67724C56.963 9.44177 56.8453 9.19271 56.6188 9.09309L54.8075 8.30969Z" fill="black"/>
<path d="M63.2845 8.30969C62.5826 10.8501 61.5954 13.4765 60.4045 15.8267V18.6342H61.5864C63.1577 15.8538 64.4618 12.7429 65.372 9.67724C65.44 9.44177 65.3222 9.19271 65.0958 9.09309L63.2845 8.30969Z" fill="black"/>
<path d="M53.3086 25.4494H51.9094V27.6999H53.3086C55.2151 27.6999 57.0173 27.2471 58.652 26.4728L58.3441 24.1633C56.8181 24.992 55.1018 25.4494 53.3086 25.4494Z" fill="black"/>
<path d="M57.1215 22.1211C57.4384 24.0547 57.6966 26.0154 57.8822 27.9852H59.5486C59.8384 27.9852 60.0649 27.7362 60.0332 27.4464C59.8339 25.4675 59.5577 23.5158 59.2407 21.5732L57.5924 21.5596C57.2981 21.5641 57.0716 21.8267 57.1215 22.1211Z" fill="black"/>
<path d="M65.6845 16.3474H60.4045V18.6523H65.6845V16.3474Z" fill="black"/>
<path d="M65.6709 22.1346C65.9879 24.0682 66.2551 26.0154 66.4452 27.9897H68.1117C68.4015 27.9897 68.6279 27.7407 68.5962 27.4508C68.3969 25.472 68.1207 23.5203 67.8037 21.5776H66.1418C65.8475 21.5776 65.6211 21.8403 65.6709 22.1346Z" fill="black"/>
<path d="M57.7962 12.58C56.243 16.8411 54.2596 20.9437 51.9048 24.8381V27.6818H52.9101C55.686 23.3573 57.9864 18.7475 59.7796 13.952C59.8701 13.7075 59.7524 13.4358 59.5169 13.3317L57.7962 12.58Z" fill="black"/>
<path d="M66.2914 12.58C64.7382 16.8411 62.7548 20.9437 60.4001 24.8381V27.6818H61.4053C64.1812 23.3573 66.4816 18.7475 68.2748 13.952C68.3653 13.7075 68.2476 13.4358 68.0121 13.3317L66.2914 12.58Z" fill="black"/>
<path d="M139.469 18.1722H136.879V25.4809C136.879 25.7843 136.634 26.0288 136.331 26.0288H130.951L131.372 27.6273C131.427 27.8402 131.621 27.9851 131.839 27.9851H136.697C138.228 27.9851 139.469 26.7443 139.469 25.2137V18.1722V18.1722Z" fill="black"/>
<path d="M124.299 24.7338V23.3164C124.299 23.1308 124.448 22.9768 124.639 22.9768H150.495V24.3942C150.495 24.5798 150.346 24.7338 150.156 24.7338H124.299Z" fill="black"/>
<path d="M126.368 21.727V20.3096C126.368 20.1239 126.518 19.97 126.708 19.97H148.43V21.3873C148.43 21.573 148.281 21.727 148.091 21.727H126.368V21.727Z" fill="black"/>
<path d="M142.697 16.9723H125.558C125.291 16.9723 125.073 17.1896 125.073 17.4568V18.7247H142.693C144.939 18.7247 147.162 18.4304 149.336 17.8961C149.599 17.8327 149.757 17.561 149.689 17.2983L149.372 16.0802C147.203 16.6553 144.962 16.9723 142.697 16.9723Z" fill="black"/>
<path d="M150.011 7.155H141.932V5.27576H150.495V6.67047C150.495 6.94217 150.278 7.155 150.011 7.155Z" fill="black"/>
<path d="M138.233 7.08249H124.299V5.68778C124.299 5.42061 124.516 5.20325 124.783 5.20325H138.717V6.59796C138.717 6.86513 138.5 7.08249 138.233 7.08249Z" fill="black"/>
<path d="M128.995 6.14513H126.554V4.4606C126.554 4.19343 126.771 3.97607 127.039 3.97607H128.999V6.14513H128.995Z" fill="black"/>
<path d="M136.507 6.14513H134.067V4.4606C134.067 4.19343 134.284 3.97607 134.551 3.97607H136.512V6.14513H136.507Z" fill="black"/>
<path d="M137.902 15.8765H136.05V9.25159H138.387V15.392C138.387 15.6591 138.169 15.8765 137.902 15.8765Z" fill="black"/>
<path d="M138.378 8.20557H128.08V10.0848H138.378V8.20557Z" fill="black"/>
<path d="M128.343 12.1632H126.491V15.8764H128.343V12.1632Z" fill="black"/>
<path d="M134.18 15.8765H132.808V11.3708H134.66V15.392C134.664 15.6592 134.447 15.8765 134.18 15.8765Z" fill="black"/>
<path d="M133.74 11.3708H127.156V12.8878H133.74V11.3708Z" fill="black"/>
<path d="M133.736 14.3595H127.147V15.8765H133.736V14.3595Z" fill="black"/>
<path d="M127.152 8.44999C126.454 9.69527 125.476 10.7594 124.299 11.5383L125.182 13.0915C125.322 13.3406 125.653 13.4221 125.884 13.2545C127.632 12.0002 129.008 10.2477 129.81 8.20093H127.559C127.392 8.20546 127.233 8.30055 127.152 8.44999Z" fill="black"/>
<path d="M142.648 8.0199H140.823C141.887 12.118 146.026 15.0569 149.979 15.3739C150.26 15.3965 150.495 15.1656 150.495 14.8848V13.3542C147.547 13.2682 144.282 11.2259 143.087 8.31876C143.01 8.14216 142.842 8.0199 142.648 8.0199Z" fill="black"/>
<path d="M149.49 6.21753H147.443C147.443 10.0847 143.838 13.6168 139.36 13.653V15.1926C139.36 15.4688 139.591 15.6998 139.867 15.6817C145.22 15.3964 149.49 11.1805 149.49 6.21753Z" fill="black"/>
<path d="M143.811 3.98962H141.996C141.76 3.98962 141.574 4.1617 141.52 4.38812C141.253 5.55189 140.438 6.4983 139.356 6.95113V8.61755C139.356 8.96623 139.704 9.18812 140.03 9.06585C142.127 8.2734 143.639 6.3217 143.811 3.98962Z" fill="black"/>
<path d="M84.1689 8.43642H81.5516V4.47415C81.5516 4.20698 81.7689 3.98962 82.0361 3.98962H84.1689V8.43642Z" fill="black"/>
<path d="M71.8791 25.8885L72.8391 27.7315C72.9704 27.9851 73.301 28.0756 73.541 27.9171C79.8761 23.7602 84.0784 16.61 84.0784 8.48621H81.461C81.4655 15.7994 77.6346 22.2205 71.8791 25.8885Z" fill="black"/>
<path d="M72.4904 7.48544V9.61827H92.2203V23.0447C92.2203 24.2356 91.2512 25.2047 90.0603 25.2047H83.5757L84.1735 27.4598C84.2278 27.6726 84.4225 27.822 84.6399 27.822H90.0965C92.7138 27.822 94.8376 25.6983 94.8376 23.0809V7.00544H72.975C72.7078 7.00091 72.4904 7.21827 72.4904 7.48544Z" fill="black"/>
<path d="M25.6135 23.0085C23.9063 24.6025 21.6195 25.5851 19.0972 25.5851C13.8172 25.5851 9.53348 21.3059 9.53348 16.0214C9.53348 10.7368 13.8127 6.45759 19.0972 6.45759C19.6633 6.45759 20.2157 6.51645 20.7546 6.61155L21.8414 0.44853C20.9493 0.29004 20.0346 0.194946 19.0972 0.194946C10.3576 0.194946 3.27536 7.28174 3.27536 16.0214C3.27536 24.761 10.3622 31.8478 19.0972 31.8478C23.2678 31.8478 27.0535 30.2221 29.8791 27.5821L25.6135 23.0085Z" fill="black"/>
<path d="M28.1902 18.9784C27.9456 19.7256 27.6105 20.432 27.1985 21.0886L33.9592 25.3135C34.7109 24.1135 35.3313 22.8184 35.7751 21.4463L28.1902 18.9784Z" fill="black"/>
<path d="M29.2272 3.51426C28.2128 2.69011 27.0943 2.00181 25.8989 1.44482L23.1366 7.36784C23.8475 7.69841 24.5132 8.11049 25.1155 8.59954L29.2272 3.51426Z" fill="black"/>
<path d="M35.6029 9.18815C35.0006 7.73456 34.2036 6.38966 33.2572 5.15796L26.6776 10.207C27.1848 10.8636 27.6104 11.5836 27.9319 12.3625L35.6029 9.18815Z" fill="black"/>
<path d="M35.1365 17.2848C35.1682 16.8682 35.1999 16.4471 35.1999 16.0214C35.1999 15.161 35.1138 14.3278 34.9825 13.5037L28.5297 14.5271C28.6067 15.0161 28.6565 15.5097 28.6565 16.0214C28.6565 16.275 28.6384 16.524 28.6203 16.7686L35.1365 17.2848Z" fill="black"/>
<rect x="166.443" y="4" width="0.888889" height="24" fill="#464646"/>
<path d="M230.383 5.64692V7.66825H233.569C233.033 10.8341 231.641 13.7723 229.546 16.2019L230.055 18.1296C230.149 18.4977 230.617 18.6181 230.878 18.3437C231.166 18.0358 231.44 17.7146 231.708 17.3866V25.4853V27.9818H237.096C237.739 27.9818 238.254 27.4597 238.254 26.8239V26.3487V15.8405V14.7228V13.344H234.278C235.128 11.5636 235.717 9.65608 236.012 7.67493H238.087C238.354 7.67493 238.569 7.46075 238.569 7.19303V5.17172H230.858C230.604 5.15833 230.383 5.3792 230.383 5.64692ZM235.992 25.4786H233.984V15.8338H235.992V25.4786Z" fill="black"/>
<path d="M253.869 3.96021H251.527C251.326 3.96021 251.145 4.08737 251.071 4.27478L250.395 6.05515H245.188L244.512 4.27478C244.439 4.08737 244.258 3.96021 244.057 3.96021H241.715L242.511 6.05515H239.941C239.673 6.05515 239.459 6.26933 239.459 6.53705V8.55835H242.283C241.587 11.0147 240.63 13.538 239.479 15.8003V16.3023V18.6114H240.657H242.799C241.788 20.7331 240.67 22.8013 239.452 24.8159V25.4316V27.6872H240.851C242.417 27.6872 243.917 27.3793 245.309 26.8372C245.349 27.212 245.389 27.5935 245.429 27.975H247.096C247.384 27.975 247.611 27.7207 247.584 27.4396C247.384 25.4584 247.109 23.504 246.788 21.563L245.141 21.5496C244.847 21.5496 244.619 21.8174 244.666 22.1119C244.8 22.9284 244.921 23.745 245.028 24.5682C244.03 24.9966 242.966 25.2777 241.862 25.3848C244.017 21.7304 245.844 17.9019 247.323 13.9396C247.417 13.6987 247.297 13.4242 247.062 13.3238L245.342 12.5742C244.88 13.8392 244.378 15.0908 243.843 16.3223H241.855C242.893 14.1806 243.769 11.9116 244.439 9.66941C244.506 9.43515 244.392 9.18082 244.164 9.08711L242.993 8.57843H250.75C250.054 11.0348 249.097 13.5581 247.946 15.8204V18.6315V18.6515H251.286C250.275 20.7666 249.164 22.828 247.946 24.836V25.4517V27.7073H249.345C250.938 27.7073 252.457 27.386 253.862 26.8305C253.903 27.2187 253.95 27.6002 253.983 27.9884H255.65C255.937 27.9884 256.165 27.7408 256.138 27.453C255.937 25.4718 255.663 23.5174 255.342 21.5764H253.682C253.387 21.5764 253.16 21.8441 253.207 22.1386C253.34 22.9418 253.461 23.7517 253.575 24.5615C252.564 25.0033 251.48 25.2911 250.355 25.4049C252.51 21.7504 254.338 17.922 255.817 13.9597C255.911 13.7187 255.79 13.4443 255.556 13.3439L253.836 12.5943C253.374 13.866 252.865 15.1243 252.33 16.3625H250.322C251.366 14.214 252.243 11.9384 252.912 9.68949C252.979 9.45523 252.859 9.2009 252.638 9.10719L251.466 8.59851H255.67C255.937 8.59851 256.152 8.38433 256.152 8.11661V6.0953H253.059L253.869 3.96021Z" fill="black"/>
<path d="M294.55 21.0478C292.776 23.6447 289.931 25.4451 286.652 25.7999V27.4798C286.652 27.7676 286.906 28.0019 287.194 27.9684C291.149 27.4531 294.556 25.1707 296.618 21.9513L295.232 20.9273C295.011 20.76 294.704 20.8202 294.55 21.0478Z" fill="black"/>
<path d="M287.194 22.8147C289.851 22.4466 292.22 20.7264 293.418 18.4307C293.418 18.4307 292.589 17.8216 292.053 17.4201C291.812 17.246 291.491 17.333 291.344 17.5874C290.373 19.2607 288.606 20.4386 286.652 20.626V22.3328C286.652 22.6139 286.906 22.8548 287.194 22.8147Z" fill="black"/>
<path d="M310.961 4.99765C310.961 4.72993 310.747 4.51575 310.479 4.51575H300.513C300.245 4.51575 300.031 4.72993 300.031 4.99765V6.47684H308.612C307.989 8.27059 306.858 9.95724 305.379 11.3025C304.301 10.3321 303.405 9.17416 302.742 7.88239C302.662 7.72176 302.501 7.62135 302.32 7.62135H300.152C300.868 9.5088 302.046 11.249 303.538 12.6746C302.461 13.3305 301.276 13.8125 300.025 14.0668V15.7735C300.025 16.0814 300.312 16.3224 300.607 16.2554C302.34 15.8806 303.967 15.1578 305.399 14.1806C306.885 15.1912 308.572 15.9275 310.372 16.2889C310.673 16.3491 310.948 16.1082 310.948 15.807V14.0936C309.622 13.8459 308.371 13.3573 307.24 12.688C309.027 10.9813 310.345 8.84618 310.948 6.57053V5.41932V4.99765H310.961Z" fill="black"/>
<path d="M296.384 15.5995V16.5165H298.264C298.532 16.5165 298.746 16.3023 298.746 16.0346V4.39526H296.384H287.134C286.866 4.39526 286.652 4.60944 286.652 4.87717V6.63745H287.502V14.3278H287.134C286.866 14.3278 286.652 14.542 286.652 14.8097V16.2621H291.196C292.943 16.2554 294.69 16.0279 296.384 15.5995ZM289.864 9.75644H296.384V11.249H289.864V9.75644ZM296.384 6.63075V8.12332H289.864V6.63075H296.384ZM289.864 12.8754H296.384V13.5916C294.697 14.0668 292.95 14.3211 291.196 14.3211H289.864V12.8754Z" fill="black"/>
<path d="M306.972 18.5244C307.246 18.4374 307.387 18.1362 307.28 17.8684L306.637 16.309C303.793 17.2192 300.808 17.7011 297.816 17.7011H294.904C294.637 17.7011 294.422 17.9153 294.422 18.183V19.9165H297.695V27.9683H299.697C299.964 27.9683 300.178 27.7541 300.178 27.4864V19.8295C302.481 19.6421 304.763 19.2071 306.972 18.5244Z" fill="black"/>
<path d="M310.894 19.7559L309.582 18.6984C309.355 18.5177 309.027 18.5779 308.873 18.8256C307.875 20.4319 306.637 21.8709 305.212 23.0958C304.496 22.4466 303.86 21.7103 303.338 20.8937C303.184 20.6595 302.876 20.5926 302.648 20.7599L301.276 21.7706C303.237 24.9966 306.53 27.3258 310.399 27.9617C310.693 28.0085 310.961 27.7743 310.961 27.4731V25.7998C309.555 25.5923 308.23 25.1171 307.052 24.4277C308.545 23.0757 309.843 21.5028 310.894 19.7559Z" fill="black"/>
<path d="M328.805 25.4786V23.2431H337.185C337.452 23.2431 337.667 23.0289 337.667 22.7612V21.0009H328.805V18.7654H337.801C338.068 18.7654 338.282 18.5512 338.282 18.2835V16.5232H328.805V14.0602H335.03H336.495C337.138 14.0602 337.653 13.5381 337.653 12.9023V4.38867H335.023H318.806H316.664C316.396 4.38867 316.182 4.60285 316.182 4.87058V14.0669H318.812H326.181V16.5299H318.759C318.879 16.202 318.993 15.874 319.1 15.546L317.105 14.9437C316.858 14.87 316.603 15.0039 316.516 15.2449C315.753 17.4201 314.662 19.4414 313.31 21.2619L314.676 22.7344C314.883 22.9553 315.245 22.9419 315.426 22.6943C316.329 21.4694 317.119 20.1576 317.788 18.7721H326.175V21.0076H317.842C317.574 21.0076 317.36 21.2218 317.36 21.4895V23.2498H326.175V25.4853H315.285C315.017 25.4853 314.803 25.6995 314.803 25.9672V27.7275H338.972C339.24 27.7275 339.454 27.5133 339.454 27.2456V25.4853H328.805V25.4786ZM335.03 6.5773V8.21712H318.812V6.5773H335.03ZM318.806 10.2049H335.023V11.8448H318.806V10.2049Z" fill="black"/>
<path d="M271.733 3.96021H269.598C269.33 3.96021 269.116 4.17438 269.116 4.44211V6.9721H260.535C260.268 6.9721 260.053 7.18628 260.053 7.454V9.5891H269.002C268.627 16.4294 264.899 22.3863 259.444 25.86L260.408 27.7073C260.542 27.9616 260.87 28.0486 261.111 27.8947C267.148 23.9324 271.251 17.246 271.619 9.5891H279.785V23.0221C279.785 24.2135 278.814 25.184 277.623 25.184H271.137L271.733 27.4396C271.786 27.6537 271.98 27.801 272.201 27.801H277.656C280.273 27.801 282.395 25.6793 282.395 23.0623V6.9788H271.733V3.96021Z" fill="black"/>
<path d="M205.913 7.05241C207.158 7.3536 208.336 7.92252 209.353 8.73239C215.464 5.92129 220.665 4.43541 221.421 5.75395C222.478 7.58786 214.534 14.1538 205.773 19.2138C197.011 24.2737 187.547 27.7541 186.49 25.9202C185.72 24.595 189.589 20.8335 195.104 16.9381C194.916 15.6597 195.01 14.3613 195.371 13.1364C186.764 18.9929 181.463 25.1438 183.056 27.9014C184.95 31.1743 195.84 28.4302 207.379 21.7638C218.924 15.0975 226.749 7.04572 224.855 3.7661C224.312 2.82907 223.034 2.38733 221.214 2.38733C217.686 2.38733 212.104 4.0606 205.913 7.05241Z" fill="black"/>
<path d="M208.691 24.0327C205.518 25.8667 202.393 27.3994 199.488 28.5974C198.926 28.825 198.973 29.6282 199.555 29.8022C203.337 30.9467 207.56 30.5853 211.248 28.4569C214.936 26.3285 217.365 22.8481 218.262 18.9996C218.403 18.4106 217.727 17.9688 217.251 18.3436C214.762 20.2578 211.863 22.1988 208.691 24.0327Z" fill="black"/>
<path d="M217.84 10.7871C216.401 12.0521 214.628 13.4308 212.64 14.8297C212.533 13.5981 212.158 12.3599 211.502 11.2154C210.926 10.2248 210.197 9.39489 209.353 8.72558C209.226 8.61849 209.092 8.5181 208.965 8.43109C208.718 8.25037 208.463 8.08306 208.202 7.9425C207.908 7.77518 207.6 7.62792 207.285 7.49406C207.138 7.42713 206.997 7.36688 206.843 7.32003C206.69 7.27318 206.549 7.21964 206.402 7.17948C206.241 7.13263 206.08 7.08579 205.92 7.04563C203.798 6.53026 201.476 6.79798 199.434 7.97596C197.386 9.16064 195.994 11.028 195.378 13.1296C195.331 13.2903 195.284 13.4442 195.251 13.6049C195.211 13.7655 195.177 13.9127 195.157 14.0734C195.124 14.2072 195.11 14.3411 195.09 14.4749C195.064 14.649 195.05 14.823 195.03 14.997C195.017 15.1911 195.003 15.3852 195.003 15.5793V15.6462C195.003 15.8604 195.01 16.0679 195.03 16.2888C195.05 16.4896 195.064 16.6904 195.097 16.8845C195.097 16.9045 195.104 16.9179 195.104 16.9313C195.264 17.9955 195.619 19.053 196.188 20.0436C196.851 21.1948 197.734 22.1385 198.758 22.848C196.563 23.872 194.468 24.7221 192.667 25.3378C192.052 24.6418 191.503 23.8654 191.021 23.0354C190.619 22.346 190.278 21.6299 190.004 20.907C189.622 19.9097 189.354 18.8857 189.207 17.855C188.317 12.0052 191.008 5.95465 196.442 2.81559C201.877 -0.323466 208.47 0.379298 213.088 4.08058C213.911 4.72311 214.668 5.47275 215.337 6.30939C215.826 6.89838 216.267 7.54761 216.669 8.2303C217.144 9.06024 217.532 9.91027 217.84 10.7871Z" fill="black"/>
</svg>
