<svg width="182" height="39" viewBox="0 0 182 39" fill="none" xmlns="http://www.w3.org/2000/svg">
<g clip-path="url(#clip0_6689_5117)">
<path d="M26.2358 27.3123C21.527 28.075 16.7043 27.0171 12.747 24.3534L12.6875 24.3305C13.2325 27.2718 14.3948 30.0641 16.0978 32.5234C17.8007 34.9827 20.0056 37.053 22.5671 38.5979C27.1334 37.8485 31.2814 35.4914 34.2622 31.952C37.2431 28.4126 38.8604 23.9241 38.8223 19.2969C37.3834 21.4221 35.5242 23.2298 33.3594 24.6084C31.1946 25.987 28.7702 26.9072 26.2358 27.3123Z" fill="black"/>
<path d="M22.864 9.55884C25.878 13.2597 27.367 17.9708 27.0274 22.7316C27.0296 22.7529 27.0296 22.7744 27.0274 22.7957C29.3026 20.8531 31.14 18.4501 32.4183 15.7452C33.6965 13.0403 34.3865 10.095 34.4428 7.10385C31.5097 3.5251 27.3942 1.11241 22.8387 0.3011C18.2833 -0.510214 13.5879 0.333254 9.59961 2.67933C12.164 2.85565 14.6648 3.55734 16.9466 4.7408C19.2284 5.92426 21.2426 7.56423 22.864 9.55884Z" fill="black"/>
<g opacity="0.65">
<path d="M37.0507 11.2993C36.4154 14.8906 34.6779 18.1951 32.0794 20.7541C29.4809 23.3132 26.1503 25 22.5497 25.5805C19.2303 26.1146 15.8271 25.6805 12.748 24.3301C16.7021 27.0018 21.525 28.0679 26.2368 27.3118C28.773 26.904 31.1986 25.9803 33.3635 24.5977C35.5284 23.215 37.3867 21.4029 38.8233 19.2735C38.8232 18.2906 38.7482 17.3091 38.5989 16.3376C38.3171 14.5949 37.7961 12.8995 37.0507 11.2993Z" fill="black"/>
<path d="M23.1953 13.6169C25.3172 16.2249 26.642 19.3896 27.0106 22.7316C27.3503 17.9708 25.8612 13.2596 22.8472 9.55882C21.226 7.56697 19.2129 5.92936 16.9328 4.74754C14.6527 3.56572 12.1541 2.86489 9.59197 2.68848C8.74138 3.17966 7.92982 3.7355 7.16445 4.3511C5.79679 5.46498 4.58989 6.76281 3.57812 8.20765C7.00488 6.96091 10.7348 6.81184 14.2501 7.78116C17.7654 8.75048 20.8918 10.7901 23.1953 13.6169Z" fill="black"/>
<path d="M12.5179 19.0259C13.7143 15.8826 15.793 13.1518 18.5043 11.1616C14.2122 13.2495 10.8762 16.8934 9.17434 21.3526C8.2617 23.7517 7.85058 26.3125 7.96639 28.8767C8.08219 31.4409 8.72245 33.9542 9.84762 36.2613C10.6986 36.7514 11.585 37.177 12.4996 37.5346C14.1497 38.1574 15.8771 38.5519 17.634 38.7071C14.8454 36.3623 12.8549 33.2084 11.9382 29.6821C11.0216 26.1559 11.2242 22.4319 12.5179 19.0259Z" fill="black"/>
</g>
<path d="M9.17413 21.3529C10.876 16.8936 14.212 13.2498 18.5041 11.1619L18.5544 11.1206C15.7339 10.1227 12.7339 9.73363 9.75203 9.97915C6.7702 10.2247 3.87423 11.0992 1.25489 12.5451C-0.373783 16.8736 -0.40306 21.6415 1.17231 25.9898C2.74769 30.338 5.82414 33.9807 9.84741 36.2615C8.72223 33.9544 8.08198 31.4412 7.96617 28.877C7.85037 26.3127 8.26149 23.752 9.17413 21.3529Z" fill="black"/>
<path d="M55.521 34.0495H53.0798C52.9855 34.0495 52.8923 34.0309 52.8053 33.9947C52.7183 33.9585 52.6393 33.9055 52.5729 33.8386C52.5065 33.7718 52.4539 33.6925 52.4183 33.6053C52.3827 33.5181 52.3646 33.4247 52.3652 33.3304V4.6582H54.7973C54.9869 4.6582 55.1686 4.73348 55.3026 4.86748C55.4366 5.00148 55.5119 5.18322 55.5119 5.37272L55.521 34.0495Z" fill="black"/>
<path d="M57.5681 16.5029H54.1055V13.3608H58.2826V15.8021C58.279 15.9892 58.2022 16.1674 58.0686 16.2985C57.935 16.4295 57.7553 16.5029 57.5681 16.5029Z" fill="black"/>
<path d="M76.0777 21.7607H72.9219V10.5436H58.627V8.1024C58.6264 8.00818 58.6444 7.91476 58.6801 7.82754C58.7157 7.74032 58.7682 7.66103 58.8346 7.5942C58.901 7.52736 58.98 7.47432 59.067 7.43812C59.154 7.40193 59.2473 7.3833 59.3415 7.3833H75.3723C75.4665 7.3833 75.5598 7.40193 75.6468 7.43812C75.7338 7.47432 75.8127 7.52736 75.8791 7.5942C75.9456 7.66103 75.9981 7.74032 76.0337 7.82754C76.0694 7.91476 76.0874 8.00818 76.0868 8.1024L76.0777 21.7607Z" fill="black"/>
<path d="M77.2865 23.1026H57.3809V20.6613C57.3809 20.4718 57.4561 20.29 57.5901 20.1561C57.7241 20.0221 57.9059 19.9468 58.0954 19.9468H78.001V22.388C78.001 22.5775 77.9258 22.7593 77.7918 22.8933C77.6578 23.0273 77.476 23.1026 77.2865 23.1026Z" fill="black"/>
<path d="M68.2281 21.7608H65.0723V4.6582H67.5135C67.703 4.6582 67.8848 4.73348 68.0188 4.86748C68.1528 5.00148 68.2281 5.18322 68.2281 5.37272V21.7608Z" fill="black"/>
<path d="M49.8335 8.81689H47.3923V18.3987C47.3866 20.5582 47.0292 22.7023 46.3342 24.7469C46.2754 24.9168 46.2828 25.1027 46.355 25.2674C46.4271 25.4321 46.5587 25.5635 46.7235 25.6355L49.0137 26.6157C50.0193 23.9924 50.5392 21.2081 50.548 18.3987V9.54055C50.5492 9.44595 50.5317 9.35207 50.4963 9.26432C50.4609 9.17657 50.4085 9.09671 50.342 9.02938C50.2756 8.96206 50.1964 8.90861 50.1091 8.87213C50.0218 8.83566 49.9281 8.81689 49.8335 8.81689Z" fill="black"/>
<path d="M68.1633 21.9346H64.9892C64.7128 24.074 63.8252 26.0883 62.4327 27.7358C61.0403 29.3834 59.2021 30.5943 57.1387 31.2233L57.7524 33.5134C57.777 33.6081 57.8207 33.6969 57.8808 33.7741C57.9409 33.8514 58.0161 33.9155 58.1019 33.9627C58.1876 34.0099 58.2821 34.039 58.3796 34.0484C58.477 34.0578 58.5753 34.0472 58.6685 34.0172C61.2341 33.111 63.489 31.4939 65.1702 29.3545C66.8514 27.2151 67.8895 24.6417 68.1633 21.9346Z" fill="black"/>
<path d="M66.9766 21.9346H70.1507C70.427 24.074 71.3146 26.0883 72.7071 27.7358C74.0996 29.3834 75.9377 30.5943 78.0012 31.2233L77.392 33.5134C77.3668 33.6078 77.3228 33.6961 77.2625 33.773C77.2023 33.8499 77.1271 33.9138 77.0416 33.9609C76.956 34.008 76.8617 34.0372 76.7645 34.0469C76.6673 34.0566 76.5692 34.0465 76.476 34.0172C73.9098 33.1113 71.6542 31.4943 69.9722 29.3549C68.2903 27.2156 67.2513 24.642 66.9766 21.9346Z" fill="black"/>
<path d="M111.615 26.0385H81.0234V23.5148C81.0234 23.3253 81.0987 23.1436 81.2327 23.0096C81.3667 22.8756 81.5485 22.8003 81.738 22.8003H112.334V25.324C112.334 25.4182 112.315 25.5115 112.279 25.5985C112.243 25.6855 112.19 25.7645 112.123 25.8309C112.056 25.8973 111.977 25.9498 111.89 25.9855C111.802 26.0211 111.709 26.0391 111.615 26.0385Z" fill="black"/>
<path d="M108.882 17.8583H83.7637V15.3346C83.7637 15.1451 83.8389 14.9634 83.9729 14.8294C84.1069 14.6954 84.2887 14.6201 84.4782 14.6201H109.596V17.1438C109.596 17.3333 109.521 17.5151 109.387 17.6491C109.253 17.7831 109.071 17.8583 108.882 17.8583Z" fill="black"/>
<path d="M109.499 4.8916C106.326 5.82097 103.036 6.29291 99.7297 6.29315H83.818C83.6285 6.29315 83.4468 6.36843 83.3128 6.50243C83.1788 6.63642 83.1035 6.81816 83.1035 7.00767V9.52679H99.7297C103.106 9.5294 106.467 9.0796 109.724 8.18937C109.818 8.16426 109.906 8.12022 109.983 8.05991C110.06 7.99961 110.124 7.92429 110.17 7.83859C110.217 7.75288 110.246 7.65856 110.255 7.56138C110.264 7.4642 110.253 7.3662 110.223 7.27333L109.499 4.8916Z" fill="black"/>
<path d="M98.8229 8.11621H95.5847V29.8494C95.5847 30.1227 95.4761 30.3849 95.2829 30.5781C95.0896 30.7714 94.8275 30.88 94.5541 30.88H88.9434L89.6396 33.4998C89.6792 33.6532 89.7686 33.789 89.8938 33.886C90.0189 33.983 90.1728 34.0357 90.3312 34.0357H94.7053C95.7986 34.0357 96.8471 33.6014 97.6201 32.8284C98.3932 32.0553 98.8275 31.0068 98.8275 29.9135L98.8229 8.11621Z" fill="black"/>
<path d="M119.783 28.1181L116.797 27.9899V7.45215L119.783 7.58039V28.1181Z" fill="black"/>
<path d="M125.946 34.0495H123.656V7.45215L126.647 7.58041V33.3304C126.648 33.5184 126.576 33.6992 126.444 33.8338C126.313 33.9684 126.134 34.0459 125.946 34.0495Z" fill="black"/>
<path d="M145.899 21.202H128.998V18.8844C128.998 18.6949 129.073 18.5132 129.207 18.3792C129.341 18.2452 129.523 18.1699 129.713 18.1699H146.609V20.46C146.613 20.5558 146.597 20.6513 146.563 20.7408C146.529 20.8304 146.478 20.9123 146.411 20.9815C146.345 21.0507 146.266 21.1059 146.178 21.1438C146.09 21.1817 145.995 21.2015 145.899 21.202Z" fill="black"/>
<path d="M145.362 11.8353H129.533V9.51775C129.533 9.42353 129.552 9.33025 129.588 9.24326C129.624 9.15627 129.677 9.0773 129.744 9.01089C129.811 8.94448 129.89 8.89196 129.977 8.85632C130.065 8.82069 130.158 8.80263 130.252 8.80324H146.082V11.1162C146.082 11.307 146.006 11.4899 145.871 11.6247C145.736 11.7596 145.553 11.8353 145.362 11.8353Z" fill="black"/>
<path d="M139.395 11.3179H136.217V19.7455H139.395V11.3179Z" fill="black"/>
<path d="M116.178 5.80763H128.123V8.15271C128.123 8.34221 128.048 8.52395 127.914 8.65795C127.78 8.79195 127.598 8.86723 127.409 8.86723H115.459V6.52215C115.459 6.42793 115.478 6.33464 115.514 6.24765C115.55 6.16066 115.603 6.08169 115.67 6.01528C115.737 5.94887 115.816 5.89634 115.903 5.8607C115.99 5.82506 116.084 5.80703 116.178 5.80763Z" fill="black"/>
<path d="M125.082 12.875H118.381V15.9346H125.082V12.875Z" fill="black"/>
<path d="M125.082 19.9468H118.381V23.0064H125.082V19.9468Z" fill="black"/>
<path d="M117.317 27.4128H116.172C116.078 27.4122 115.985 27.4302 115.897 27.4658C115.81 27.5015 115.731 27.554 115.664 27.6204C115.597 27.6868 115.544 27.7658 115.508 27.8528C115.472 27.9398 115.453 28.0331 115.453 28.1273V30.4449H117.313C121.047 30.4413 124.758 29.8445 128.305 28.6769C128.398 28.6465 128.483 28.5979 128.557 28.5339C128.63 28.4699 128.69 28.3918 128.733 28.3042C128.775 28.2167 128.8 28.1215 128.805 28.0242C128.811 27.9269 128.796 27.8296 128.763 27.738L127.98 25.5898C124.554 26.7938 120.949 27.4101 117.317 27.4128Z" fill="black"/>
<path d="M128.324 31.3929L129.107 33.541C129.14 33.632 129.19 33.7155 129.256 33.7865C129.321 33.8576 129.401 33.9147 129.489 33.9544C129.577 33.9942 129.672 34.0158 129.769 34.0179C129.865 34.0201 129.961 34.0027 130.051 33.967C132.763 32.8234 135.078 30.9065 136.707 28.4555C138.336 26.0045 139.207 23.1281 139.211 20.1851H136.184C136.179 22.6332 135.423 25.0209 134.017 27.0253C132.611 29.0298 130.624 30.5543 128.324 31.3929Z" fill="black"/>
<path d="M147.292 31.3929L146.508 33.541C146.476 33.632 146.425 33.7155 146.36 33.7865C146.294 33.8576 146.215 33.9147 146.127 33.9544C146.039 33.9942 145.944 34.0158 145.847 34.0179C145.751 34.0201 145.655 34.0027 145.565 33.967C142.853 32.8229 140.539 30.9059 138.91 28.455C137.281 26.0042 136.409 23.1279 136.404 20.1851H139.436C139.441 22.6327 140.197 25.0199 141.601 27.0243C143.006 29.0287 144.992 30.5535 147.292 31.3929Z" fill="black"/>
<path d="M136.596 10.0533H133.12L130.953 4.8501H133.921C134.064 4.85157 134.204 4.89605 134.321 4.97771C134.439 5.05938 134.529 5.17448 134.581 5.30812L136.596 10.0533Z" fill="black"/>
<path d="M139.02 10.0533H142.487L144.653 4.8501H141.685C141.542 4.85157 141.403 4.89605 141.285 4.97771C141.167 5.05938 141.077 5.17448 141.026 5.30812L139.02 10.0533Z" fill="black"/>
<path d="M155.191 6.85645H152.314V19.9788H155.191V6.85645Z" fill="black"/>
<path d="M163.89 6.85645H161.014V19.9788H163.89V6.85645Z" fill="black"/>
<path d="M179.471 21.6048H177.254V6.85645H180.185V20.872C180.188 20.9673 180.171 21.0622 180.136 21.151C180.101 21.2398 180.049 21.3208 179.983 21.3891C179.916 21.4574 179.836 21.5117 179.748 21.5487C179.661 21.5858 179.566 21.6048 179.471 21.6048Z" fill="black"/>
<path d="M151.093 30.6509H182.001V32.9776C182.001 33.1671 181.926 33.3489 181.792 33.4829C181.658 33.6169 181.476 33.6922 181.286 33.6922H150.379V31.37C150.378 31.2758 150.396 31.1824 150.432 31.0951C150.468 31.0079 150.52 30.9286 150.587 30.8618C150.653 30.7949 150.732 30.7419 150.819 30.7057C150.906 30.6695 150.999 30.6509 151.093 30.6509Z" fill="black"/>
<path d="M178.316 23.6387H154.055V26.6983H178.316V23.6387Z" fill="black"/>
<path d="M152.273 32.4644V24.3482C152.273 24.1587 152.349 23.977 152.483 23.843C152.617 23.709 152.798 23.6337 152.988 23.6337H155.429V32.4644H152.273Z" fill="black"/>
<path d="M176.984 23.6386V32.4692H180.14V23.6386H176.984Z" fill="black"/>
<path d="M160.51 25.1684V32.4692H163.666V25.1684H160.51Z" fill="black"/>
<path d="M168.75 25.1683V32.4692H171.906V25.1683H168.75Z" fill="black"/>
<path d="M162.45 11.9956H154.055V14.8399H162.45V11.9956Z" fill="black"/>
<path d="M178.565 10.6538H167.93V13.4981H178.565V10.6538Z" fill="black"/>
<path d="M180.186 5.19824H167.93V8.04256H180.186V5.19824Z" fill="black"/>
<path d="M178.565 16.0723H167.93V18.9166H178.565V16.0723Z" fill="black"/>
<path d="M152.314 18.7241H163.889V19.9608C163.889 20.3884 163.719 20.7985 163.416 21.1008C163.114 21.4032 162.704 21.573 162.276 21.573H152.314V18.7241Z" fill="black"/>
<path d="M153.034 5.19826H163.893V8.11128H152.314V5.91277C152.314 5.81855 152.333 5.72527 152.369 5.63828C152.405 5.55129 152.459 5.47232 152.525 5.40591C152.592 5.3395 152.671 5.28696 152.759 5.25133C152.846 5.21569 152.939 5.19765 153.034 5.19826Z" fill="black"/>
<path d="M169.303 5.19824H167.091C166.9 5.19824 166.717 5.274 166.582 5.40886C166.448 5.54372 166.372 5.72663 166.372 5.91734V13.1404C166.368 15.7747 165.922 18.3896 165.053 20.8764L167.105 21.6046C167.287 21.6643 167.485 21.6496 167.657 21.5638C167.828 21.4781 167.959 21.3282 168.021 21.1466C168.853 18.5514 169.278 15.8428 169.28 13.1175L169.303 5.19824Z" fill="black"/>
</g>
<defs>
<clipPath id="clip0_6689_5117">
<rect width="182" height="38.7213" fill="white"/>
</clipPath>
</defs>
</svg>
